<?xml version="1.0" standalone="no"?>
<!DOCTYPE svg PUBLIC "-//W3C//DTD SVG 20010904//EN"
 "http://www.w3.org/TR/2001/REC-SVG-20010904/DTD/svg10.dtd">
<svg version="1.0" xmlns="http://www.w3.org/2000/svg"
 width="512.000000pt" height="512.000000pt" viewBox="0 0 512.000000 512.000000"
 preserveAspectRatio="xMidYMid meet">
<metadata>
Created by potrace 1.14, written by Peter Selinger 2001-2017
</metadata>
<g transform="translate(0.000000,512.000000) scale(0.100000,-0.100000)"
fill="#000000" stroke="none">
<path d="M3158 5115 c-2 -1 -57 -6 -124 -9 -66 -4 -129 -8 -140 -10 -11 -2
-50 -7 -86 -10 -37 -4 -75 -8 -85 -10 -10 -2 -40 -7 -68 -10 -27 -4 -58 -9
-67 -12 -9 -3 -27 -7 -40 -9 -13 -3 -34 -7 -48 -10 -14 -3 -34 -7 -45 -9 -11
-2 -40 -9 -65 -16 -25 -7 -52 -13 -61 -15 -8 -2 -33 -11 -55 -20 -21 -9 -46
-18 -54 -19 -37 -5 -147 -59 -212 -102 -55 -37 -130 -113 -123 -125 3 -4 0 -9
-6 -11 -14 -5 -19 -138 -7 -188 11 -44 19 -82 22 -97 1 -7 5 -16 9 -19 4 -4 7
-17 7 -30 0 -19 -5 -22 -40 -20 -22 0 -40 -2 -40 -5 0 -4 -46 -7 -102 -8 -102
-2 -140 5 -228 44 -3 2 -15 6 -27 10 -13 4 -23 11 -23 16 0 5 -7 9 -15 9 -8 0
-23 4 -33 10 -16 9 -66 30 -84 35 -5 2 -9 3 -10 5 -9 6 -96 14 -110 10 -5 -1
-12 -3 -18 -4 -20 -2 -50 -37 -50 -59 0 -13 13 -33 31 -47 17 -14 40 -33 52
-43 12 -11 36 -26 52 -34 17 -9 50 -30 75 -47 121 -84 108 -119 -98 -270 -30
-21 -58 -51 -63 -65 -9 -22 -7 -29 17 -47 78 -63 186 -38 339 76 97 72 130 86
195 85 30 -1 63 2 73 7 11 6 17 5 17 -2 0 -6 4 -9 9 -6 10 7 73 18 116 21 17
1 30 3 30 4 0 3 34 10 70 14 17 2 35 6 40 9 18 11 85 18 85 9 0 -8 74 -38 110
-45 8 -2 22 -6 30 -9 8 -3 22 -5 30 -5 8 0 26 -3 40 -6 73 -18 385 0 524 30
11 3 37 7 56 9 19 3 46 7 60 11 14 3 35 6 48 7 12 1 22 3 22 7 0 4 32 10 83
13 9 1 17 5 17 9 0 4 10 8 23 8 12 0 63 13 112 29 90 28 143 31 245 16 19 -3
46 -7 60 -9 70 -10 150 -30 150 -37 0 -5 3 -8 8 -8 15 3 73 -14 78 -22 3 -5
20 -16 37 -24 35 -16 69 -37 77 -46 3 -4 25 -23 50 -44 25 -21 44 -40 44 -44
-1 -3 11 -25 27 -48 16 -23 29 -49 29 -57 0 -9 4 -16 9 -16 4 0 17 -35 27 -77
18 -75 19 -134 19 -1343 0 -696 -4 -1281 -8 -1300 -21 -89 -104 -143 -220
-142 -155 0 -224 73 -233 245 -6 117 -12 177 -29 267 -20 110 -113 340 -137
340 -6 0 -8 3 -5 6 6 6 -29 62 -78 124 -40 51 -160 170 -172 170 -6 0 -13 3
-15 8 -11 25 -174 122 -283 167 -39 16 -125 44 -155 50 -8 2 -17 4 -20 5 -3 1
-13 2 -22 1 -10 -1 -18 2 -18 6 0 9 -42 14 -122 17 -21 0 -38 3 -38 6 0 7 -77
3 -89 -5 -5 -3 -12 -1 -16 5 -4 6 -10 8 -14 6 -4 -3 -38 -8 -75 -11 -37 -4
-77 -9 -89 -11 -12 -3 -33 -7 -47 -10 -14 -3 -34 -8 -45 -11 -11 -4 -22 -8
-25 -8 -45 -11 -96 -29 -100 -36 -3 -5 -15 -10 -25 -12 -26 -4 -118 -48 -126
-60 -3 -5 -9 -8 -13 -8 -5 1 -64 -36 -136 -86 -56 -39 -221 -216 -228 -244 -2
-8 -8 -15 -13 -17 -5 -2 -9 -10 -9 -17 0 -7 -4 -15 -9 -17 -7 -3 -91 -169 -91
-181 0 -3 -5 -18 -12 -34 -6 -15 -12 -31 -13 -35 -2 -5 -4 -10 -5 -13 -1 -3
-3 -13 -4 -22 -1 -10 -4 -22 -7 -28 -6 -9 -18 -68 -25 -120 -1 -11 -3 -20 -4
-20 -2 0 -4 -27 -6 -60 -1 -33 -6 -91 -9 -130 -4 -38 -7 -78 -8 -87 -1 -10 -5
-18 -8 -18 -4 0 -10 -8 -14 -19 -11 -36 -88 -102 -102 -87 -3 3 -13 1 -20 -6
-21 -17 -130 -12 -159 7 -13 8 -24 13 -24 9 0 -4 -16 11 -35 32 -19 21 -35 44
-35 51 0 7 -4 13 -8 13 -7 0 -13 17 -41 126 -7 25 -8 419 -2 419 1 0 4 32 6
72 2 39 7 84 9 100 3 15 8 52 12 82 7 57 11 86 14 86 2 0 6 24 14 75 2 14 5
25 6 25 1 0 3 7 5 15 1 8 10 42 19 75 9 33 18 67 21 75 2 8 11 32 19 52 9 21
17 41 17 45 0 5 16 41 35 82 19 41 34 77 34 82 0 4 3 9 8 11 4 2 25 30 46 63
61 93 196 222 271 260 22 11 43 25 47 30 5 7 8 7 8 0 0 -6 3 -6 8 1 6 9 73 44
85 44 3 0 18 5 34 12 15 6 33 12 38 14 6 1 44 12 85 24 41 11 86 23 100 26 78
15 143 67 135 109 -2 11 -4 23 -4 26 -2 12 -93 50 -107 45 -8 -3 -14 -2 -14 3
0 7 -188 6 -240 -2 -14 -3 -47 -8 -75 -11 -27 -4 -57 -10 -65 -13 -8 -3 -19
-7 -25 -8 -5 -2 -30 -8 -55 -15 -25 -7 -52 -14 -60 -15 -8 -2 -16 -4 -17 -5
-2 -2 -6 -3 -10 -5 -8 -2 -19 -6 -78 -28 -16 -7 -32 -12 -35 -12 -48 -7 -420
-206 -420 -226 0 -4 -9 -11 -21 -14 -21 -7 -37 -18 -83 -60 -12 -11 -37 -31
-55 -45 -54 -41 -185 -179 -251 -265 -69 -89 -130 -180 -130 -195 0 -5 -8 -14
-17 -19 -10 -6 -14 -11 -10 -11 4 0 -10 -33 -32 -72 -21 -40 -40 -76 -41 -80
-1 -8 -25 -70 -40 -103 -8 -19 -41 -117 -46 -140 -2 -5 -5 -20 -8 -32 -3 -13
-8 -31 -10 -41 -2 -9 -9 -35 -14 -57 -6 -22 -13 -58 -17 -80 -3 -23 -7 -50 -9
-60 -20 -108 -27 -404 -13 -538 8 -84 30 -170 65 -262 14 -38 27 -76 28 -83 2
-8 10 -22 20 -33 9 -10 13 -19 8 -19 -5 0 -4 -4 1 -8 6 -4 17 -20 25 -37 8
-16 25 -43 37 -60 13 -16 31 -41 40 -54 27 -36 117 -135 127 -140 5 -2 25 -18
45 -36 53 -47 118 -89 207 -133 183 -92 358 -131 569 -126 72 2 141 5 155 8
14 3 52 10 85 16 33 7 66 16 73 22 6 6 12 8 12 5 0 -10 129 42 204 82 100 52
146 82 146 92 0 5 3 8 8 7 22 -7 194 168 256 261 48 72 104 172 112 201 4 17
44 138 52 160 7 21 9 29 17 80 13 80 15 104 19 200 2 52 9 107 14 121 6 15 8
30 5 33 -4 3 -1 6 6 6 7 0 10 4 7 9 -12 19 66 81 124 99 34 10 166 4 190 -9
54 -30 98 -76 106 -111 1 -5 2 -9 4 -10 5 -8 10 -51 13 -124 2 -44 7 -86 11
-92 4 -7 2 -12 -5 -12 -8 0 -8 -4 -2 -12 6 -7 9 -23 8 -36 -1 -12 1 -22 5 -22
3 0 5 -12 5 -27 -1 -16 5 -45 12 -65 6 -21 10 -38 8 -38 -2 0 10 -37 26 -83
17 -45 31 -86 32 -92 1 -5 4 -12 7 -15 3 -3 18 -30 34 -60 43 -84 137 -209
198 -265 86 -79 137 -122 141 -118 2 2 10 -3 17 -12 7 -8 19 -15 26 -15 8 0
14 -4 14 -8 0 -14 208 -108 285 -130 132 -37 187 -45 340 -46 107 0 219 9 236
20 4 2 24 6 45 10 48 7 207 64 215 76 3 6 8 9 10 7 9 -5 49 13 49 22 0 6 5 7
10 4 6 -3 10 -1 10 5 0 6 4 9 9 5 5 -3 15 1 23 8 7 7 36 27 63 44 28 18 65 46
83 63 18 16 35 30 37 30 2 0 26 23 52 52 26 29 58 62 69 75 12 12 19 24 16 27
-3 3 -1 6 4 6 5 0 18 16 28 35 11 19 23 35 28 35 4 0 8 4 8 10 0 5 13 31 28
57 16 27 39 76 51 108 12 33 26 69 30 80 13 29 38 140 48 210 4 33 8 661 8
1395 0 1060 -3 1348 -13 1400 -7 36 -15 74 -17 85 -2 11 -4 22 -5 25 -1 3 -2
8 -1 12 0 4 -4 20 -10 35 -6 15 -13 37 -15 48 -3 11 -6 25 -8 30 -12 55 -119
287 -147 321 -5 6 -6 14 -2 17 3 4 1 7 -5 7 -10 0 -68 80 -64 87 2 4 -91 105
-159 173 -80 79 -149 140 -161 140 -4 0 -8 3 -8 8 0 4 -20 18 -45 32 -25 14
-45 28 -45 31 0 4 -18 14 -40 23 -22 9 -40 21 -40 27 0 5 -4 8 -9 5 -5 -3 -21
4 -37 16 -16 13 -25 16 -20 8 4 -8 0 -6 -9 5 -9 11 -17 19 -18 17 -1 -2 -15 2
-32 9 -16 7 -32 13 -35 14 -3 0 -14 6 -25 12 -33 18 -231 83 -272 89 -21 3
-51 9 -68 14 -16 5 -50 11 -75 15 -25 3 -63 8 -85 11 -40 6 -481 14 -487 9z"/>
</g>
</svg>
